<svg xmlns="http://www.w3.org/2000/svg" viewBox="0 0 900 1150" role="img" aria-labelledby="title desc">
  <title id="title">陈锐珊照片占位图</title>
  <desc id="desc">暖色夕阳、云层、树影与微笑侧影风格的照片占位图。</desc>
  <defs>
    <linearGradient id="sky" x1="0" x2="1" y1="0" y2="1">
      <stop offset="0" stop-color="#f4e5cf"/>
      <stop offset="0.48" stop-color="#e8b071"/>
      <stop offset="1" stop-color="#3c241e"/>
    </linearGradient>
    <radialGradient id="sun" cx="18%" cy="58%" r="34%">
      <stop offset="0" stop-color="#fff8ca"/>
      <stop offset="0.26" stop-color="#f5b35d"/>
      <stop offset="1" stop-color="#f5b35d" stop-opacity="0"/>
    </radialGradient>
    <filter id="soft" x="-20%" y="-20%" width="140%" height="140%">
      <feGaussianBlur stdDeviation="18"/>
    </filter>
  </defs>
  <rect width="900" height="1150" fill="url(#sky)"/>
  <rect width="900" height="1150" fill="url(#sun)"/>
  <g opacity="0.55" filter="url(#soft)">
    <ellipse cx="170" cy="150" rx="190" ry="42" fill="#fff4dd"/>
    <ellipse cx="430" cy="98" rx="230" ry="56" fill="#fbecd4"/>
    <ellipse cx="650" cy="208" rx="260" ry="70" fill="#efe1d2"/>
    <ellipse cx="320" cy="320" rx="250" ry="60" fill="#fff1d8"/>
  </g>
  <path d="M0 760c130-60 265-86 410-78 156 8 319-21 490-88v556H0z" fill="#2b211c" opacity="0.68"/>
  <path d="M670 270c75 54 128 115 158 184 38 88 38 187 6 312-36 138-13 251 66 339V1150H551c-15-118-4-234 32-348 34-107 45-203 32-289-10-69 8-150 55-243z" fill="#14100f" opacity="0.92"/>
  <circle cx="640" cy="590" r="72" fill="#e6a37a" opacity="0.9"/>
  <path d="M668 530c-25 40-29 82-12 126 18 47 10 90-25 128 80-11 142-43 186-97-3-108-50-160-149-157z" fill="#12100f"/>
  <path d="M492 575l90-16c18-3 36 9 40 27l14 67c4 18-8 36-26 40l-89 18c-19 4-37-9-41-28l-13-67c-4-19 7-37 25-41z" fill="#1c1614" stroke="#f8d7b0" stroke-width="5"/>
  <path d="M0 870h455M0 918h505M0 970h540M0 1036h590" stroke="#d2823f" stroke-width="5" opacity="0.45"/>
</svg>
